<?xml version="1.0" encoding="UTF-8" standalone="no"?>
<!-- Created with Inkscape (http://www.inkscape.org/) -->

<svg
   width="210mm"
   height="297mm"
   viewBox="0 0 210 297"
   version="1.1"
   id="svg73875"
   inkscape:version="1.1 (c4e8f9ed74, 2021-05-24)"
   sodipodi:docname="sass.svg"
   xmlns:inkscape="http://www.inkscape.org/namespaces/inkscape"
   xmlns:sodipodi="http://sodipodi.sourceforge.net/DTD/sodipodi-0.dtd"
   xmlns="http://www.w3.org/2000/svg"
   xmlns:svg="http://www.w3.org/2000/svg">
  <sodipodi:namedview
     id="namedview73877"
     pagecolor="#505050"
     bordercolor="#ffffff"
     borderopacity="1"
     inkscape:pageshadow="0"
     inkscape:pageopacity="0"
     inkscape:pagecheckerboard="true"
     inkscape:document-units="mm"
     showgrid="false"
     inkscape:zoom="0.64765011"
     inkscape:cx="200.72567"
     inkscape:cy="561.25984"
     inkscape:window-width="1920"
     inkscape:window-height="1034"
     inkscape:window-x="0"
     inkscape:window-y="22"
     inkscape:window-maximized="1"
     inkscape:current-layer="layer1" />
  <defs
     id="defs73872" />
  <g
     inkscape:label="Layer 1"
     inkscape:groupmode="layer"
     id="layer1">
    <g
       id="g11168"
       transform="matrix(0.01049255,0,0,-0.01049255,83.420022,170.25448)"
       style="display:inline">
      <g
         id="g72955"
         transform="rotate(11.955865,2054.355,2054.355)"
         style="display:inline"
         inkscape:label="sass-circle">
        <path
           d="M 2104.9002,4191.1265 C 3267.1791,4192.2116 4208.5056,3246.9072 4207.4206,2079.7341 4206.3356,912.563 3263.2499,-34.492284 2100.971,-35.577302 938.69217,-36.66232 -2.6445909,908.6338 -1.5595746,2075.8049 -0.47455654,3242.978 942.62137,4190.0415 2104.9002,4191.1265 v 0"
           style="display:inline;fill:#cc499c;fill-opacity:1;fill-rule:evenodd;stroke:none;stroke-width:1.02655"
           id="path11170"
           inkscape:label="pink-circle" />
        <path
           d="m 1689.6641,1459.0526 c 28.7248,-106.2498 25.5726,-205.3305 -4.0939,-295.0605 -3.2964,-9.9658 -6.9289,-19.8258 -10.8691,-29.5705 -3.9402,-9.7255 -8.207,-19.3452 -12.7815,-28.84 -22.8818,-47.4761 -53.5862,-91.9115 -91.1908,-132.92767 C 1456.022,847.51147 1295.7535,800.18915 1227.0313,840.0636 c -74.2096,43.01313 -37.0376,219.4574 95.9574,360.0338 143.076,151.2542 348.9351,248.4994 348.9351,248.4994 l -0.3171,0.615 c 5.9294,3.1905 11.955,6.4773 18.0574,9.8408 z M 3320.411,3245.9453 c -89.4032,350.6361 -670.7982,465.9003 -1221.0565,270.4105 -327.466,-116.3309 -681.9749,-298.9238 -936.8746,-537.3517 -303.0735,-283.4803 -351.40584,-530.2114 -331.48303,-633.3091 70.26656,-363.7828 568.71923,-601.5667 773.62693,-777.99 v -1.0667 c -60.419,-29.7434 -502.6495,-253.5447 -606.1402,-482.3452 -109.19923,-241.37624 17.3809,-414.58773 101.1844,-437.90388 259.6567,-72.24145 526.1077,57.6984 669.2991,271.28406 138.1844,206.11952 126.681,472.28232 66.6272,604.68142 82.8396,21.8535 179.4119,31.6462 302.1432,17.3079 346.3211,-40.4492 414.2745,-256.6969 401.2815,-347.1764 -12.9833,-90.5085 -85.6263,-140.2708 -109.9113,-155.2905 -24.2944,-15.0302 -31.7038,-20.2294 -29.6569,-31.3983 2.9407,-16.23921 14.1846,-15.63473 34.8945,-12.1251 28.5037,4.80507 181.8529,73.6119 188.4071,240.666 8.3511,212.0961 -194.9036,449.3517 -554.7942,443.1531 -148.2174,-2.5563 -241.4167,-16.6544 -308.7358,-41.7081 -4.978,5.6701 -10.0426,11.3112 -15.2802,16.8947 -222.4942,237.3804 -633.7992,405.2986 -616.3568,724.423 6.3428,116.0138 46.6669,421.511 790.3295,792.0784 609.1876,303.5463 1096.8644,220.0149 1181.1455,34.8849 120.3864,-264.481 -260.637,-756.0596 -893.283,-826.9633 -241.0323,-27.0238 -367.944,66.3965 -399.5133,101.1853 -33.2415,36.6242 -38.1908,38.2772 -50.5974,31.406 -20.2199,-11.1959 -7.4095,-43.534 0,-62.812 18.8838,-49.1559 96.3994,-136.3297 228.5486,-179.6907 116.2444,-38.1523 399.2442,-59.112 741.4906,73.2678 383.301,148.2751 682.6188,560.7237 594.7051,905.4879"
           style="display:inline;fill:#ffffff;fill-opacity:1;fill-rule:nonzero;stroke:none;stroke-width:0.961016"
           id="path11172"
           inkscape:label="white-logo" />
      </g>
      <path
         style="display:inline;fill:#cc499c;fill-opacity:1;stroke-width:6.9488"
         d="M 844.93922,0.12813459 -359.02386,690.84694 l -0.0249,1385.45186 -0.0249,1385.4521 1189.17637,682.3351 c 654.04729,375.2841 1197.88739,686.6524 1208.53389,691.9293 18.9631,9.3986 43.9412,-4.5052 1225.8068,-682.3351 l 1206.4489,-691.9293 -0.025,-1385.4521 -0.025,-1385.45186 L 3265.9035,-0.14730962 C 2603.1868,-380.19405 2058.2515,-691.01746 2054.9363,-690.86612 2051.6208,-690.71749 1507.1247,-379.76725 844.94521,0.12813459 Z M 2955.0558,543.11696 3840.2985,1051.5023 v 1024.8936 1024.8936 l -888.7279,510.7174 c -488.8002,280.8946 -893.4328,509.6214 -899.1833,508.2816 -5.7507,-1.3401 -408.8148,-231.2241 -895.6982,-510.8542 L 271.44641,3101.0161 V 2076.3793 1051.7423 l 303.21316,-173.93038 303.21292,-173.93041 17.7121,-34.52248 c 26.5319,-51.71348 54.23104,-84.57487 87.73776,-104.08959 31.19385,-18.16744 115.16225,-36.48477 169.88155,-37.05894 28.3232,-0.29724 73.3025,-24.48163 463.5326,-249.23331 237.6912,-136.89747 436.8705,-247.856083 442.6211,-246.574969 5.7506,1.28062 408.8149,231.103009 895.6982,510.714739 z"
         id="path72721"
         inkscape:label="hex-border" />
    </g>
  </g>
</svg>
